<svg xmlns="http://www.w3.org/2000/svg" width="40" height="43.076" viewBox="0 0 40 43.076"><defs><style>.a{fill:#fff;}</style></defs><path class="a" d="M77.473,84.615a1.454,1.454,0,0,0-1.539,1.539v30.769a1.454,1.454,0,0,0,1.539,1.539h30.769a1.454,1.454,0,0,0,1.538-1.539V86.154a1.454,1.454,0,0,0-1.538-1.539Zm0-3.077h30.769a4.732,4.732,0,0,1,4.615,4.616v30.769a4.732,4.732,0,0,1-4.615,4.615H77.473a4.732,4.732,0,0,1-4.616-4.615V86.154A4.733,4.733,0,0,1,77.473,81.538ZM90.7,105.231,86.4,100.923a1.523,1.523,0,0,0-2.154,2.154l5.538,5.538c0,.308.308.616.923.616.308,0,.616-.308.923-.616l9.847-9.846a1.523,1.523,0,0,0-2.154-2.154L90.7,105.231Zm-4-26.769A1.454,1.454,0,0,1,88.242,80v6.154a1.538,1.538,0,0,1-3.077,0V80A1.453,1.453,0,0,1,86.7,78.462Zm12.308,0A1.453,1.453,0,0,1,100.549,80v6.154a1.538,1.538,0,1,1-3.076,0V80A1.453,1.453,0,0,1,99.011,78.462Z" transform="translate(-72.857 -78.462)"/></svg>