<svg xmlns="http://www.w3.org/2000/svg" width="14" height="12.6" viewBox="0 0 14 12.6"><defs><style>.a{fill:#0565b9;}</style></defs><g transform="translate(-137 -937)"><g transform="translate(3.66 819.79)"><path class="a" d="M136.49,119.31h7.7a.35.35,0,0,0,0-.7h-7.7a.35.35,0,1,0,0,.7Zm1.4-1.4h4.9a.35.35,0,1,0,0-.7h-4.9a.35.35,0,1,0,0,.7Zm-2.1,2.8h9.1a.35.35,0,1,0,0-.7h-9.1a.35.35,0,0,0,0,.7Zm-1.4,1.4h11.9a.35.35,0,1,0,0-.7h-11.9a.35.35,0,1,0,0,.7Zm12.473.7H133.817a.477.477,0,0,0-.477.477v6.045a.478.478,0,0,0,.477.478h13.046a.478.478,0,0,0,.477-.478v-6.045A.477.477,0,0,0,146.863,122.81Zm-.223,6.3h-12.6v-5.6h12.6Z"/><path class="a" d="M135.79,127.71a.35.35,0,0,0,.35-.35v-2.1a.35.35,0,1,0-.7,0v2.1A.35.35,0,0,0,135.79,127.71Zm2.1,0a.35.35,0,0,0,.35-.35v-2.1a.35.35,0,0,0-.7,0v2.1A.35.35,0,0,0,137.89,127.71Z"/><circle class="a" cx="1.318" cy="1.318" r="1.318" transform="translate(139.5 124.992)"/><circle class="a" cx="1.318" cy="1.318" r="1.318" transform="translate(143.033 124.992)"/></g></g></svg>