<svg xmlns="http://www.w3.org/2000/svg" width="16" height="12.579" viewBox="0 0 16 12.579"><defs><style>.a{fill:#0565b9;}</style></defs><g transform="translate(-135 -577)"><path class="a" d="M107.225,103.642c0,.1-.144.183-.321.183H91.729c-.177,0-.321-.082-.321-.183v-.709c0-.1.144-.183.321-.183H106.9c.177,0,.321.082.321.183Z" transform="translate(43.684 483.631)"/><path class="a" d="M106.9,103.834H91.729c-.182,0-.33-.086-.33-.192v-.709c0-.106.148-.193.33-.193H106.9c.182,0,.33.087.33.193v.709C107.234,103.748,107.086,103.834,106.9,103.834Zm-15.175-1.075c-.172,0-.312.078-.312.174v.709c0,.1.14.174.312.174H106.9c.172,0,.312-.078.312-.174v-.709c0-.1-.14-.174-.312-.174Zm15.5,3c0,.1-.144.183-.321.183H91.729c-.177,0-.321-.082-.321-.183v-.71c0-.1.144-.183.321-.183H106.9c.177,0,.321.082.321.183Z" transform="translate(43.684 483.631)"/><path class="a" d="M106.9,105.948H91.729c-.182,0-.33-.086-.33-.192v-.71c0-.106.148-.192.33-.192H106.9c.182,0,.33.086.33.192v.71C107.234,105.862,107.086,105.948,106.9,105.948Zm-15.175-1.075c-.172,0-.312.077-.312.173v.71c0,.1.14.173.312.173H106.9c.172,0,.312-.078.312-.173v-.71c0-.1-.14-.173-.312-.173Zm14.829-3.236H92.075a.781.781,0,0,1-.759-.8v-6.67a.781.781,0,0,1,.759-.8h14.483a.78.78,0,0,1,.758.8v6.67A.78.78,0,0,1,106.558,101.637Zm-14.339-.927h14.194V94.3H92.219Z" transform="translate(43.684 483.631)"/><path class="a" d="M93.652,95.695H97.2v3.551H93.652Z" transform="translate(43.684 483.631)"/></g></svg>