<svg xmlns="http://www.w3.org/2000/svg" width="116" height="116" viewBox="0 0 116 116"><defs><style>.a{fill:#0565b9;}</style></defs><path class="a" d="M99.7,42.13a58,58,0,1,0,58,58,58.171,58.171,0,0,0-58-58Zm1.45,17.4c22.112,0,22.112,16.675,22.112,26.1s-8.7,26.825-22.112,27.187c-13.05,0-22.113-17.4-22.113-27.187,0-9.425,0-26.1,22.113-26.1ZM99.7,154.868a55.277,55.277,0,0,1-42.05-19.575c1.45-3.626,3.262-7.613,5.8-9.788,5.437-4.35,21.75-11.6,21.75-11.6l10.15,19.575,1.812-4.712-2.9-5.8,5.8-5.8,5.8,5.8-2.538,6.163,1.45,4.713,10.512-19.213s16.313,7.25,21.75,11.6c2.538,1.812,4.35,5.075,5.438,7.975A53.79,53.79,0,0,1,99.7,154.868Z" transform="translate(-41.697 -42.13)"/></svg>