<svg xmlns="http://www.w3.org/2000/svg" width="12.8" height="16" viewBox="0 0 12.8 16"><defs><style>.a{fill:#0565b9;}</style></defs><g transform="translate(-138 -1008)"><g transform="translate(79 404)"><g transform="translate(-92.225 469.257)"><path class="a" d="M163.225,140.343h-3.2a1.6,1.6,0,0,1-1.6-1.6h0v-3.2h-5.6a.8.8,0,0,0-.8.8v12.8a.8.8,0,0,0,.8.8h9.6a.8.8,0,0,0,.8-.8h0Zm-.331-.8-3.669-3.669v2.869a.8.8,0,0,0,.8.8h2.869Zm-4.331-4.8a1.6,1.6,0,0,1,1.131.469l3.862,3.862a1.6,1.6,0,0,1,.469,1.131v8.938a1.6,1.6,0,0,1-1.6,1.6h-9.6a1.6,1.6,0,0,1-1.6-1.6h0v-12.8a1.6,1.6,0,0,1,1.6-1.6Z"/><path class="a" d="M158.615,142.99h3.26c.144,0,.26-.205.26-.459s-.116-.458-.26-.458h-3.26c-.144,0-.26.205-.26.458S158.471,142.99,158.615,142.99Zm3.26,3.666h-3.26c-.144,0-.26.206-.26.459s.116.458.26.458h3.26c.144,0,.26-.205.26-.458S162.019,146.656,161.875,146.656Zm0-2.291h-3.26c-.144,0-.26.205-.26.458s.116.458.26.458h3.26c.144,0,.26-.205.26-.458S162.019,144.365,161.875,144.365Z"/><path class="a" d="M153.058,143.507a.653.653,0,0,0,.637.669h2.9a.653.653,0,0,0,.669-.637v-2.9a.653.653,0,0,0-.637-.669h-2.9a.652.652,0,0,0-.669.637.173.173,0,0,0,0,.032Z"/><path class="a" d="M156.791,146.743h-3.26c-.144,0-.26.205-.26.458s.116.458.26.458h3.26c.143,0,.26-.205.26-.458S156.934,146.743,156.791,146.743Z"/></g></g></g></svg>