<svg xmlns="http://www.w3.org/2000/svg" width="14" height="14.003" viewBox="0 0 14 14.003"><defs><style>.a{fill:#0565b9;}</style></defs><g transform="translate(-136 -648)"><g transform="translate(38.901 530.048)"><path class="a" d="M102.784,117.952H97.978a.879.879,0,0,0-.879.879h0v4.811a.879.879,0,0,0,.879.879h4.81a.879.879,0,0,0,.879-.879h0v-4.815a.879.879,0,0,0-.882-.875Zm0,5.686H97.978v-4.811h4.81Zm0,1.749H97.978a.878.878,0,0,0-.879.879h0v4.811a.878.878,0,0,0,.879.878h4.81a.878.878,0,0,0,.879-.878h0v-4.811a.878.878,0,0,0-.88-.878h0Zm0,5.686H97.978v-4.811h4.81Zm7.436-5.686h-4.811a.879.879,0,0,0-.879.879h0v4.811a.879.879,0,0,0,.879.878h4.811a.879.879,0,0,0,.879-.878h0v-4.811a.879.879,0,0,0-.879-.878Zm0,5.686h-4.811v-4.811h4.811Z"/><path class="a" d="M107.527,123.734a.654.654,0,0,0,.923.023l.023-.023,2.028-2.028a.654.654,0,0,0,.023-.924l-.023-.022-2.028-2.028a.652.652,0,0,0-.923-.023l-.023.023L105.5,120.76a.653.653,0,0,0-.023.923l.023.023Z"/></g></g></svg>