<svg xmlns="http://www.w3.org/2000/svg" width="40" height="43.129" viewBox="0 0 40 43.129"><defs><style>.a{fill:#fff;}</style></defs><g transform="translate(-84.99 -83.836)"><path class="a" d="M123.833,90.54c-.105-.008-10.712-1.105-18.084-6.459a1.287,1.287,0,0,0-1.512,0C96.9,89.4,86.258,90.532,86.153,90.54a1.28,1.28,0,0,0-1.163,1.281,57.316,57.316,0,0,0,2.395,15.051,37.081,37.081,0,0,0,5.765,11.764A23.134,23.134,0,0,0,104.6,126.9a1.3,1.3,0,0,0,.393.061,1.252,1.252,0,0,0,.389-.061,23.084,23.084,0,0,0,11.449-8.268,37,37,0,0,0,5.764-11.764,57.511,57.511,0,0,0,2.395-15.051A1.274,1.274,0,0,0,123.833,90.54Zm-1.443,2.412,0,.071a56.421,56.421,0,0,1-2.247,13.105c-2.915,9.62-8,15.737-15.12,18.185l-.027.008-.027-.008c-7.1-2.444-12.179-8.54-15.1-18.124A57.257,57.257,0,0,1,87.6,93.019l0-.071.065-.008c3.085-.451,10.947-1.959,17.284-6.224l.039-.031.044.031c6.345,4.265,14.208,5.773,17.293,6.228Z" transform="translate(0 0)"/><path class="a" d="M104.246,94.731l-5.729,7.516-2.917-2.5a.973.973,0,0,0-.626-.229.964.964,0,0,0-.626,1.7l3.694,3.159a1.006,1.006,0,0,0,.642.23.883.883,0,0,0,.089,0,.968.968,0,0,0,.665-.374l6.349-8.325a.952.952,0,0,0,.187-.715.969.969,0,0,0-1.728-.462Z" transform="translate(5.004 5.133)"/></g></svg>