<svg xmlns="http://www.w3.org/2000/svg" width="245" height="150" viewBox="0 0 245 150"><defs><style>.a{opacity:0.67;}.b{fill:#f4f4f5;}.c,.f{fill:#fff;}.d{fill:#e4eaef;}.d,.e,.f,.g{opacity:0.9;}.e{fill:#f4f7f9;}.g{fill:#d5dde5;}</style></defs><g transform="translate(0 0)"><g class="a" transform="translate(-1039 -1195.414)"><rect class="b" width="116.271" height="16.77" rx="8.385" transform="translate(1085.961 1261.565)"/><rect class="b" width="116.271" height="77.141" rx="4" transform="translate(1109.439 1255.975)"/><rect class="c" width="28.509" height="16.77" rx="8.385" transform="translate(1092.11 1278.335)"/><rect class="b" width="116.271" height="16.77" rx="8.385" transform="translate(1144.097 1267.155)"/><rect class="b" width="91.271" height="16.77" rx="8.385" transform="translate(1192.729 1283.925)"/><rect class="b" width="80.495" height="16.77" rx="8.385" transform="translate(1063.043 1295.104)"/><rect class="c" width="28.509" height="16.77" rx="8.385" transform="translate(1207.822 1300.694)"/><rect class="b" width="44.72" height="16.77" rx="8.385" transform="translate(1192.729 1316.905)"/><rect class="c" width="28.509" height="16.77" rx="8.385" transform="translate(1092.11 1312.433)"/><rect class="b" width="237.112" height="16.77" rx="8.385" transform="translate(1039 1328.644)"/><rect class="b" width="168.294" height="16.77" rx="8.385" transform="translate(1063.006 1242)"/><rect class="c" width="41.366" height="16.77" rx="8.385" transform="translate(1196.083 1250.385)"/></g><g transform="translate(-831 -498)"><path class="d" d="M304.528,139.3a4.412,4.412,0,1,1-4.412-4.411,4.411,4.411,0,0,1,4.412,4.411Zm-8.079,24a2.211,2.211,0,1,1-2.221-2.2h.01A2.212,2.212,0,0,1,296.449,163.3Z" transform="translate(703.024 363.106)"/><path class="d" d="M197.435,177.417H311.712q3.276,0,3.276,3.276v80.294q0,3.276-3.276,3.276H197.435q-3.276,0-3.276-3.276V180.693Q194.159,177.417,197.435,177.417Z" transform="translate(703.024 363.106)"/><path class="e" d="M311.983,266.684H197.164a5.464,5.464,0,0,1-5.466-5.425V180.422a5.466,5.466,0,0,1,5.456-5.466h18.257v4.913H197.164a.553.553,0,0,0-.543.553v80.837a.552.552,0,0,0,.543.552H311.983a.573.573,0,0,0,.553-.552V180.422a.553.553,0,0,0-.553-.553h-16.67v-4.913h16.67a5.475,5.475,0,0,1,5.466,5.466v80.837a5.475,5.475,0,0,1-5.466,5.425Z" transform="translate(703.024 363.106)"/><path class="f" d="M200.027,184.25H308.466v70.477H200.027Z" transform="translate(703.024 363.106)"/><path class="e" d="M312.877,269.086H194.943a5.787,5.787,0,0,1-5.707-4.843l-.844-5.125h54.661l2.1,3.015h15.072l2.261-3.015h57.586l-.734,4.452a6.571,6.571,0,0,1-6.461,5.516Z" transform="translate(703.024 363.106)"/><path class="d" d="M312.877,271.538H194.943a8.2,8.2,0,0,1-8.129-6.863l-1.306-8.039h58.831l2.09,3.015H259.02l2.261-3.015h61.7l-1.2,7.315a8.984,8.984,0,0,1-8.9,7.587ZM191.3,261.57l.371,2.271a3.316,3.316,0,0,0,3.276,2.843H312.877a4.109,4.109,0,0,0,4.07-3.456l.261-1.608H263.742l-2.261,3.015H243.867l-2.09-3.015Z" transform="translate(703.024 363.106)"/><path class="d" d="M214.959,139.3a4.21,4.21,0,1,1-4.22-4.2h.05A4.211,4.211,0,0,1,214.959,139.3Zm0,26.205a2.105,2.105,0,1,1,0-.01Zm105.625-7.586a2.592,2.592,0,1,1,0-.02Zm-126.776-4.873a5.416,5.416,0,1,1-5.426-5.406h.01A5.416,5.416,0,0,1,193.808,153.051Z" transform="translate(703.024 363.106)"/><path class="e" d="M249.621,208.782a32.626,32.626,0,1,0-27.284-37.21A32.626,32.626,0,0,0,249.621,208.782Z" transform="translate(703.024 363.106)"/><path class="d" d="M227.248,163.742l-4.4-2.09a35,35,0,0,1,7.415-10.37l3.416,3.537A30.146,30.146,0,0,0,227.248,163.742Z" transform="translate(703.024 363.106)"/><path class="d" d="M254.578,211.621a35.168,35.168,0,0,1-35.087-35.088H224.4a30.146,30.146,0,1,0,15.585-26.406l-2.372-4.3a35.078,35.078,0,1,1,16.961,65.795Z" transform="translate(703.024 363.106)"/><path class="f" d="M274.253,176.543a19.684,19.684,0,1,1-19.685-19.684h.01a19.674,19.674,0,0,1,19.675,19.674v.01Z" transform="translate(703.024 363.106)"/><path class="g" d="M250.268,187.717,238.039,175.5l3.477-3.477,8.752,8.752,17.363-17.363,3.477,3.467Z" transform="translate(703.024 363.106)"/><path class="d" d="M208.327,199.543h16.7v4.914h-16.7Z" transform="translate(703.024 363.106)"/><path class="d" d="M208.327,213.249h84.756v4.913H208.327Z" transform="translate(703.024 363.106)"/><path class="d" d="M208.327,226.954h84.756v4.914H208.327Z" transform="translate(703.024 363.106)"/><path class="d" d="M208.327,240.67h47.116v4.914H208.327Z" transform="translate(703.024 363.106)"/></g></g></svg>